<svg width="271" height="88" viewBox="0 0 271 88" fill="none" xmlns="http://www.w3.org/2000/svg">
<rect x="22.5059" y="5.69873" width="19.7875" height="57.247" fill="#0B9DD0"/>
<rect x="61.0234" y="24.4282" width="19.7875" height="51.4545" transform="rotate(90 61.0234 24.4282)" fill="#0B9DD0"/>
<rect x="42.293" y="24.4282" width="19.7875" height="42.2918" rx="9.89375" transform="rotate(90 42.293 24.4282)" fill="#08A160"/>
<path d="M32.3992 24.4282C37.8634 24.4282 42.293 28.8578 42.293 34.322C42.293 39.7862 37.8634 44.2158 32.3992 44.2158L22.545 44.2158L22.545 24.4282L32.3992 24.4282Z" fill="white"/>
<path d="M94.0215 18.1684C94.0215 19.3501 93.7503 20.4349 93.2079 21.4229C92.6654 22.3915 91.8324 23.176 90.7089 23.7766C89.5853 24.3771 88.1905 24.6774 86.5245 24.6774H83.4444V32H78.4754V11.6012H86.5245C88.1518 11.6012 89.5272 11.8821 90.6508 12.4439C91.7743 13.0057 92.617 13.7806 93.1788 14.7686C93.7406 15.7565 94.0215 16.8898 94.0215 18.1684ZM86.1468 20.7255C87.096 20.7255 87.8031 20.5027 88.268 20.0571C88.7329 19.6116 88.9654 18.982 88.9654 18.1684C88.9654 17.3547 88.7329 16.7251 88.268 16.2796C87.8031 15.834 87.096 15.6113 86.1468 15.6113H83.4444V20.7255H86.1468ZM101.577 18.488C102.158 17.5969 102.885 16.8995 103.757 16.3958C104.628 15.8728 105.597 15.6113 106.662 15.6113V20.8708H105.297C104.057 20.8708 103.127 21.142 102.507 21.6844C101.887 22.2074 101.577 23.1373 101.577 24.474V32H96.6083V15.7856H101.577V18.488ZM124.322 23.6313C124.322 24.0962 124.293 24.5805 124.235 25.0842H112.989C113.067 26.0915 113.386 26.8664 113.948 27.4088C114.529 27.9319 115.237 28.1934 116.07 28.1934C117.309 28.1934 118.171 27.6703 118.656 26.6243H123.944C123.673 27.6897 123.179 28.6486 122.462 29.501C121.765 30.3534 120.883 31.0217 119.818 31.506C118.753 31.9903 117.561 32.2325 116.244 32.2325C114.655 32.2325 113.241 31.8935 112.001 31.2154C110.762 30.5374 109.793 29.5688 109.096 28.3096C108.398 27.0504 108.049 25.5782 108.049 23.8928C108.049 22.2074 108.389 20.7352 109.067 19.476C109.764 18.2168 110.733 17.2482 111.972 16.5702C113.212 15.8921 114.636 15.5531 116.244 15.5531C117.813 15.5531 119.208 15.8825 120.428 16.5411C121.649 17.1998 122.598 18.1393 123.276 19.3597C123.973 20.5802 124.322 22.004 124.322 23.6313ZM119.237 22.3237C119.237 21.4713 118.946 20.7933 118.365 20.2896C117.784 19.7859 117.057 19.5341 116.186 19.5341C115.353 19.5341 114.646 19.7762 114.065 20.2605C113.503 20.7448 113.154 21.4326 113.018 22.3237H119.237ZM133.54 32.2325C132.125 32.2325 130.866 31.9903 129.762 31.506C128.658 31.0217 127.786 30.3631 127.147 29.5301C126.507 28.6777 126.149 27.7285 126.072 26.6824H130.982C131.041 27.2442 131.302 27.6994 131.767 28.0481C132.232 28.3968 132.803 28.5711 133.481 28.5711C134.101 28.5711 134.576 28.4549 134.905 28.2225C135.254 27.9706 135.428 27.651 135.428 27.2635C135.428 26.7986 135.186 26.4596 134.702 26.2465C134.218 26.014 133.433 25.7622 132.348 25.491C131.186 25.2198 130.217 24.9389 129.442 24.6483C128.667 24.3384 127.999 23.8637 127.437 23.2245C126.876 22.5658 126.595 21.6844 126.595 20.5802C126.595 19.6503 126.847 18.8076 127.35 18.0521C127.873 17.2772 128.629 16.667 129.617 16.2215C130.624 15.7759 131.815 15.5531 133.191 15.5531C135.225 15.5531 136.823 16.0568 137.985 17.0642C139.167 18.0715 139.845 19.4082 140.019 21.0742H135.428C135.351 20.5124 135.099 20.0668 134.673 19.7375C134.266 19.4082 133.724 19.2435 133.046 19.2435C132.464 19.2435 132.019 19.3597 131.709 19.5922C131.399 19.8053 131.244 20.1056 131.244 20.493C131.244 20.9579 131.486 21.3066 131.97 21.5391C132.474 21.7716 133.249 22.004 134.295 22.2365C135.496 22.5464 136.474 22.8564 137.23 23.1663C137.985 23.4569 138.644 23.9412 139.206 24.6193C139.787 25.2779 140.087 26.169 140.107 27.2926C140.107 28.2418 139.835 29.0942 139.293 29.8497C138.77 30.5858 138.005 31.167 136.997 31.5932C136.009 32.0194 134.857 32.2325 133.54 32.2325ZM142.159 23.8928C142.159 22.2074 142.498 20.7352 143.176 19.476C143.873 18.2168 144.832 17.2482 146.052 16.5702C147.292 15.8921 148.706 15.5531 150.295 15.5531C152.329 15.5531 154.024 16.0859 155.38 17.1513C156.755 18.2168 157.656 19.7181 158.082 21.6553H152.794C152.348 20.4155 151.486 19.7956 150.208 19.7956C149.297 19.7956 148.571 20.154 148.028 20.8708C147.486 21.5682 147.215 22.5755 147.215 23.8928C147.215 25.2101 147.486 26.2271 148.028 26.9439C148.571 27.6413 149.297 27.99 150.208 27.99C151.486 27.99 152.348 27.3701 152.794 26.1303H158.082C157.656 28.0287 156.755 29.5204 155.38 30.6052C154.005 31.69 152.31 32.2325 150.295 32.2325C148.706 32.2325 147.292 31.8935 146.052 31.2154C144.832 30.5374 143.873 29.5688 143.176 28.3096C142.498 27.0504 142.159 25.5782 142.159 23.8928ZM165.709 18.488C166.29 17.5969 167.017 16.8995 167.889 16.3958C168.76 15.8728 169.729 15.6113 170.794 15.6113V20.8708H169.429C168.189 20.8708 167.259 21.142 166.639 21.6844C166.019 22.2074 165.709 23.1373 165.709 24.474V32H160.74V15.7856H165.709V18.488ZM175.669 14.1002C174.797 14.1002 174.08 13.8484 173.518 13.3447C172.976 12.8217 172.705 12.1824 172.705 11.4269C172.705 10.652 172.976 10.0127 173.518 9.50906C174.08 8.98602 174.797 8.72449 175.669 8.72449C176.521 8.72449 177.218 8.98602 177.761 9.50906C178.322 10.0127 178.603 10.652 178.603 11.4269C178.603 12.1824 178.322 12.8217 177.761 13.3447C177.218 13.8484 176.521 14.1002 175.669 14.1002ZM178.138 15.7856V32H173.17V15.7856H178.138ZM186.708 18.0812C187.173 17.3257 187.842 16.7155 188.713 16.2505C189.585 15.7856 190.583 15.5531 191.706 15.5531C193.043 15.5531 194.254 15.8921 195.339 16.5702C196.423 17.2482 197.276 18.2168 197.896 19.476C198.535 20.7352 198.855 22.1977 198.855 23.8637C198.855 25.5297 198.535 27.002 197.896 28.2806C197.276 29.5398 196.423 30.518 195.339 31.2154C194.254 31.8935 193.043 32.2325 191.706 32.2325C190.563 32.2325 189.566 32.0097 188.713 31.5641C187.861 31.0992 187.193 30.489 186.708 29.7335V32H181.739V10.497H186.708V18.0812ZM193.798 23.8637C193.798 22.6239 193.45 21.6553 192.752 20.9579C192.074 20.2412 191.232 19.8828 190.224 19.8828C189.236 19.8828 188.394 20.2412 187.696 20.9579C187.018 21.6747 186.679 22.653 186.679 23.8928C186.679 25.1326 187.018 26.1109 187.696 26.8277C188.394 27.5444 189.236 27.9028 190.224 27.9028C191.212 27.9028 192.055 27.5444 192.752 26.8277C193.45 26.0915 193.798 25.1036 193.798 23.8637ZM203.96 14.1002C203.089 14.1002 202.372 13.8484 201.81 13.3447C201.268 12.8217 200.996 12.1824 200.996 11.4269C200.996 10.652 201.268 10.0127 201.81 9.50906C202.372 8.98602 203.089 8.72449 203.96 8.72449C204.813 8.72449 205.51 8.98602 206.053 9.50906C206.614 10.0127 206.895 10.652 206.895 11.4269C206.895 12.1824 206.614 12.8217 206.053 13.3447C205.51 13.8484 204.813 14.1002 203.96 14.1002ZM206.43 15.7856V32H201.461V15.7856H206.43ZM219.911 15.6113C221.809 15.6113 223.32 16.2312 224.444 17.471C225.587 18.6914 226.158 20.3768 226.158 22.5271V32H221.219V23.1954C221.219 22.1106 220.938 21.2679 220.376 20.6674C219.814 20.0668 219.059 19.7666 218.109 19.7666C217.16 19.7666 216.405 20.0668 215.843 20.6674C215.281 21.2679 215 22.1106 215 23.1954V32H210.031V15.7856H215V17.9359C215.504 17.2191 216.182 16.6573 217.034 16.2505C217.887 15.8243 218.846 15.6113 219.911 15.6113ZM235.772 15.5531C236.915 15.5531 237.912 15.7856 238.765 16.2505C239.636 16.7155 240.305 17.3257 240.77 18.0812V15.7856H245.739V31.9709C245.739 33.4626 245.438 34.8089 244.838 36.01C244.257 37.2305 243.356 38.1991 242.135 38.9158C240.934 39.6326 239.433 39.991 237.631 39.991C235.229 39.991 233.282 39.4195 231.791 38.2765C230.299 37.153 229.447 35.6226 229.234 33.6854H234.144C234.299 34.3053 234.667 34.7896 235.249 35.1383C235.83 35.5063 236.547 35.6904 237.399 35.6904C238.426 35.6904 239.239 35.3901 239.84 34.7896C240.46 34.2084 240.77 33.2689 240.77 31.9709V29.6754C240.285 30.4309 239.617 31.0508 238.765 31.5351C237.912 32 236.915 32.2325 235.772 32.2325C234.435 32.2325 233.224 31.8935 232.139 31.2154C231.055 30.518 230.193 29.5398 229.553 28.2806C228.933 27.002 228.623 25.5297 228.623 23.8637C228.623 22.1977 228.933 20.7352 229.553 19.476C230.193 18.2168 231.055 17.2482 232.139 16.5702C233.224 15.8921 234.435 15.5531 235.772 15.5531ZM240.77 23.8928C240.77 22.653 240.421 21.6747 239.724 20.9579C239.046 20.2412 238.213 19.8828 237.225 19.8828C236.237 19.8828 235.394 20.2412 234.697 20.9579C234.019 21.6553 233.68 22.6239 233.68 23.8637C233.68 25.1036 234.019 26.0915 234.697 26.8277C235.394 27.5444 236.237 27.9028 237.225 27.9028C238.213 27.9028 239.046 27.5444 239.724 26.8277C240.421 26.1109 240.77 25.1326 240.77 23.8928Z" fill="#08A160"/>
<path d="M77.6327 65.7716C77.6327 63.7569 78.0686 61.965 78.9404 60.3958C79.8121 58.8073 81.0229 57.5772 82.5726 56.7054C84.1417 55.8143 85.9143 55.3688 87.8902 55.3688C90.3117 55.3688 92.3846 56.0081 94.1087 57.2866C95.8328 58.5652 96.9854 60.3086 97.5666 62.5171H92.1037C91.6968 61.6647 91.1157 61.0157 90.3602 60.5702C89.624 60.1246 88.7814 59.9018 87.8321 59.9018C86.3017 59.9018 85.0619 60.4346 84.1127 61.5C83.1635 62.5655 82.6888 63.9893 82.6888 65.7716C82.6888 67.5538 83.1635 68.9776 84.1127 70.0431C85.0619 71.1086 86.3017 71.6413 87.8321 71.6413C88.7814 71.6413 89.624 71.4185 90.3602 70.973C91.1157 70.5274 91.6968 69.8784 92.1037 69.0261H97.5666C96.9854 71.2345 95.8328 72.978 94.1087 74.2565C92.3846 75.5157 90.3117 76.1453 87.8902 76.1453C85.9143 76.1453 84.1417 75.7094 82.5726 74.8377C81.0229 73.9466 79.8121 72.7164 78.9404 71.1473C78.0686 69.5782 77.6327 67.7863 77.6327 65.7716ZM99.6215 67.8637C99.6215 66.1977 99.9315 64.7352 100.551 63.476C101.191 62.2168 102.053 61.2482 103.138 60.5702C104.222 59.8921 105.433 59.5531 106.77 59.5531C107.913 59.5531 108.91 59.7856 109.763 60.2505C110.635 60.7155 111.303 61.3257 111.768 62.0812V59.7856H116.737V76H111.768V73.7044C111.283 74.4599 110.605 75.0701 109.734 75.5351C108.881 76 107.884 76.2325 106.741 76.2325C105.423 76.2325 104.222 75.8935 103.138 75.2154C102.053 74.518 101.191 73.5398 100.551 72.2806C99.9315 71.002 99.6215 69.5297 99.6215 67.8637ZM111.768 67.8928C111.768 66.653 111.419 65.6747 110.722 64.9579C110.044 64.2412 109.211 63.8828 108.223 63.8828C107.235 63.8828 106.392 64.2412 105.695 64.9579C105.017 65.6553 104.678 66.6239 104.678 67.8637C104.678 69.1036 105.017 70.0915 105.695 70.8277C106.392 71.5444 107.235 71.9028 108.223 71.9028C109.211 71.9028 110.044 71.5444 110.722 70.8277C111.419 70.1109 111.768 69.1326 111.768 67.8928ZM125.3 62.488C125.882 61.5969 126.608 60.8995 127.48 60.3958C128.352 59.8728 129.32 59.6113 130.386 59.6113V64.8708H129.02C127.78 64.8708 126.85 65.142 126.23 65.6844C125.61 66.2074 125.3 67.1373 125.3 68.474V76H120.332V59.7856H125.3V62.488ZM148.045 67.6313C148.045 68.0962 148.016 68.5805 147.958 69.0842H136.713C136.79 70.0915 137.11 70.8664 137.671 71.4088C138.253 71.9319 138.96 72.1934 139.793 72.1934C141.033 72.1934 141.895 71.6703 142.379 70.6243H147.667C147.396 71.6897 146.902 72.6486 146.185 73.501C145.488 74.3534 144.607 75.0217 143.541 75.506C142.476 75.9903 141.284 76.2325 139.967 76.2325C138.379 76.2325 136.964 75.8935 135.725 75.2154C134.485 74.5374 133.516 73.5688 132.819 72.3096C132.121 71.0504 131.773 69.5782 131.773 67.8928C131.773 66.2074 132.112 64.7352 132.79 63.476C133.487 62.2168 134.456 61.2482 135.696 60.5702C136.935 59.8921 138.359 59.5531 139.967 59.5531C141.536 59.5531 142.931 59.8825 144.151 60.5411C145.372 61.1998 146.321 62.1393 146.999 63.3597C147.696 64.5802 148.045 66.004 148.045 67.6313ZM142.96 66.3237C142.96 65.4713 142.669 64.7933 142.088 64.2896C141.507 63.7859 140.781 63.5341 139.909 63.5341C139.076 63.5341 138.369 63.7762 137.788 64.2605C137.226 64.7448 136.877 65.4326 136.742 66.3237H142.96Z" fill="#0B9DD0"/>
<path d="M164.467 55.6012C166.617 55.6012 168.496 56.0274 170.104 56.8798C171.712 57.7322 172.952 58.9332 173.823 60.483C174.714 62.0134 175.16 63.7859 175.16 65.8006C175.16 67.7959 174.714 69.5685 173.823 71.1182C172.952 72.668 171.702 73.8691 170.075 74.7214C168.467 75.5738 166.598 76 164.467 76H156.824V55.6012H164.467ZM164.147 71.6994C166.026 71.6994 167.489 71.186 168.535 70.1593C169.581 69.1326 170.104 67.6797 170.104 65.8006C170.104 63.9215 169.581 62.4589 168.535 61.4129C167.489 60.3668 166.026 59.8437 164.147 59.8437H161.793V71.6994H164.147ZM180.436 58.1002C179.564 58.1002 178.847 57.8484 178.286 57.3447C177.743 56.8217 177.472 56.1824 177.472 55.4269C177.472 54.652 177.743 54.0127 178.286 53.5091C178.847 52.986 179.564 52.7245 180.436 52.7245C181.288 52.7245 181.986 52.986 182.528 53.5091C183.09 54.0127 183.371 54.652 183.371 55.4269C183.371 56.1824 183.09 56.8217 182.528 57.3447C181.986 57.8484 181.288 58.1002 180.436 58.1002ZM182.906 59.7856V76H177.937V59.7856H182.906ZM191.476 62.488C192.057 61.5969 192.783 60.8995 193.655 60.3958C194.527 59.8728 195.495 59.6113 196.561 59.6113V64.8708H195.195C193.955 64.8708 193.025 65.142 192.405 65.6844C191.786 66.2074 191.476 67.1373 191.476 68.474V76H186.507V59.7856H191.476V62.488ZM214.22 67.6313C214.22 68.0962 214.191 68.5805 214.133 69.0842H202.888C202.965 70.0915 203.285 70.8664 203.847 71.4088C204.428 71.9319 205.135 72.1934 205.968 72.1934C207.208 72.1934 208.07 71.6703 208.554 70.6243H213.843C213.571 71.6897 213.077 72.6486 212.361 73.501C211.663 74.3534 210.782 75.0217 209.716 75.506C208.651 75.9903 207.46 76.2325 206.142 76.2325C204.554 76.2325 203.14 75.8935 201.9 75.2154C200.66 74.5374 199.691 73.5688 198.994 72.3096C198.297 71.0504 197.948 69.5782 197.948 67.8928C197.948 66.2074 198.287 64.7352 198.965 63.476C199.662 62.2168 200.631 61.2482 201.871 60.5702C203.111 59.8921 204.534 59.5531 206.142 59.5531C207.711 59.5531 209.106 59.8825 210.327 60.5411C211.547 61.1998 212.496 62.1393 213.174 63.3597C213.872 64.5802 214.22 66.004 214.22 67.6313ZM209.135 66.3237C209.135 65.4713 208.845 64.7933 208.263 64.2896C207.682 63.7859 206.956 63.5341 206.084 63.5341C205.251 63.5341 204.544 63.7762 203.963 64.2605C203.401 64.7448 203.052 65.4326 202.917 66.3237H209.135ZM215.854 67.8928C215.854 66.2074 216.193 64.7352 216.871 63.476C217.568 62.2168 218.527 61.2482 219.748 60.5702C220.987 59.8921 222.402 59.5531 223.99 59.5531C226.024 59.5531 227.719 60.0859 229.075 61.1513C230.451 62.2168 231.351 63.7181 231.778 65.6553H226.489C226.043 64.4155 225.181 63.7956 223.903 63.7956C222.992 63.7956 222.266 64.154 221.723 64.8708C221.181 65.5682 220.91 66.5755 220.91 67.8928C220.91 69.2101 221.181 70.2271 221.723 70.9439C222.266 71.6413 222.992 71.99 223.903 71.99C225.181 71.99 226.043 71.3701 226.489 70.1303H231.778C231.351 72.0287 230.451 73.5204 229.075 74.6052C227.7 75.69 226.005 76.2325 223.99 76.2325C222.402 76.2325 220.987 75.8935 219.748 75.2154C218.527 74.5374 217.568 73.5688 216.871 72.3096C216.193 71.0504 215.854 69.5782 215.854 67.8928ZM243.473 71.7866V76H240.944C239.143 76 237.738 75.5641 236.731 74.6924C235.724 73.8013 235.22 72.3581 235.22 70.3627V63.9118H233.244V59.7856H235.22V55.8337H240.189V59.7856H243.443V63.9118H240.189V70.4209C240.189 70.9052 240.305 71.2539 240.538 71.4669C240.77 71.68 241.158 71.7866 241.7 71.7866H243.473Z" fill="#6B6A6F"/>
</svg>
